<svg width="105" height="93" viewBox="0 0 105 93" fill="none" xmlns="http://www.w3.org/2000/svg">
<path d="M79.2949 -64C35.5739 -64 0 -28.6602 0 14.778C0.14881 35.5748 8.56845 55.4694 23.4226 70.1229C38.2767 84.7765 58.3602 93 79.2929 93C100.226 93 120.309 84.7765 135.163 70.1229C150.017 55.4694 158.437 35.5748 158.586 14.778C158.586 -28.6602 123.016 -64 79.2949 -64ZM79.2949 78.2432C62.3625 78.2148 46.1318 71.519 34.1591 59.6231C22.1864 47.7271 15.4481 31.601 15.4206 14.778C15.4206 -20.2114 44.0737 -48.6832 79.2949 -48.6832C114.516 -48.6832 143.169 -20.2035 143.169 14.778C143.158 31.6058 136.424 47.7411 124.448 59.6405C112.472 71.5399 96.2322 78.2306 79.2949 78.2432Z" fill="#005BA4" fill-opacity="0.1"/>
<path d="M81.6717 47.0101C98.7507 47.0101 112.596 33.5198 112.596 16.8788C112.596 0.237719 98.7507 -13.2525 81.6717 -13.2525C64.5927 -13.2525 50.7475 0.237719 50.7475 16.8788C50.7475 33.5198 64.5927 47.0101 81.6717 47.0101Z" fill="#005BA4" fill-opacity="0.1"/>
</svg>
